<?xml version="1.0" encoding="UTF-8"?>
<svg version="1.1" xmlns="http://www.w3.org/2000/svg" width="128" height="128">
<path d="M0 0 C2.15864176 0.08328695 4.31714515 0.14520587 6.4765625 0.20458984 C13.26991 0.42217455 19.6564772 0.76598202 26.1640625 2.83349609 C26.1640625 3.82349609 26.1640625 4.81349609 26.1640625 5.83349609 C26.8034375 5.93662109 27.4428125 6.03974609 28.1015625 6.14599609 C28.7821875 6.37287109 29.4628125 6.59974609 30.1640625 6.83349609 C30.6590625 8.31849609 30.6590625 8.31849609 31.1640625 9.83349609 C33.16422716 11.04231706 33.16422716 11.04231706 35.1640625 11.83349609 C35.19298635 15.95848147 35.21083517 20.08344095 35.2265625 24.20849609 C35.23494141 25.38412109 35.24332031 26.55974609 35.25195312 27.77099609 C35.25517578 28.89248047 35.25839844 30.01396484 35.26171875 31.16943359 C35.26695557 32.20632324 35.27219238 33.24321289 35.27758789 34.31152344 C35.1640625 36.83349609 35.1640625 36.83349609 34.1640625 38.83349609 C32.8440625 38.83349609 31.5240625 38.83349609 30.1640625 38.83349609 C30.1640625 40.15349609 30.1640625 41.47349609 30.1640625 42.83349609 C31.8140625 43.16349609 33.4640625 43.49349609 35.1640625 43.83349609 C35.19111558 46.25023833 35.21092688 48.6666755 35.2265625 51.08349609 C35.23494141 51.76541016 35.24332031 52.44732422 35.25195312 53.14990234 C35.26834642 56.52692164 35.22035018 59.60641248 34.1640625 62.83349609 C35.1540625 62.83349609 36.1440625 62.83349609 37.1640625 62.83349609 C37.1640625 72.07349609 37.1640625 81.31349609 37.1640625 90.83349609 C36.1740625 90.83349609 35.1840625 90.83349609 34.1640625 90.83349609 C34.1640625 92.15349609 34.1640625 93.47349609 34.1640625 94.83349609 C32.8440625 94.83349609 31.5240625 94.83349609 30.1640625 94.83349609 C30.1640625 96.15349609 30.1640625 97.47349609 30.1640625 98.83349609 C27.5240625 98.83349609 24.8840625 98.83349609 22.1640625 98.83349609 C22.1640625 102.13349609 22.1640625 105.43349609 22.1640625 108.83349609 C19.5240625 108.83349609 16.8840625 108.83349609 14.1640625 108.83349609 C14.1640625 105.53349609 14.1640625 102.23349609 14.1640625 98.83349609 C12.8440625 98.50349609 11.5240625 98.17349609 10.1640625 97.83349609 C10.1640625 96.84349609 10.1640625 95.85349609 10.1640625 94.83349609 C8.5140625 94.83349609 6.8640625 94.83349609 5.1640625 94.83349609 C5.1640625 96.15349609 5.1640625 97.47349609 5.1640625 98.83349609 C3.8440625 98.83349609 2.5240625 98.83349609 1.1640625 98.83349609 C1.1640625 102.13349609 1.1640625 105.43349609 1.1640625 108.83349609 C-1.4759375 108.83349609 -4.1159375 108.83349609 -6.8359375 108.83349609 C-6.8359375 107.18349609 -6.8359375 105.53349609 -6.8359375 103.83349609 C-8.3209375 103.33849609 -8.3209375 103.33849609 -9.8359375 102.83349609 C-10.1659375 101.84349609 -10.4959375 100.85349609 -10.8359375 99.83349609 C-16.1159375 99.50349609 -21.3959375 99.17349609 -26.8359375 98.83349609 C-26.8359375 97.51349609 -26.8359375 96.19349609 -26.8359375 94.83349609 C-27.8259375 94.83349609 -28.8159375 94.83349609 -29.8359375 94.83349609 C-29.8359375 86.91349609 -29.8359375 78.99349609 -29.8359375 70.83349609 C-28.8459375 70.83349609 -27.8559375 70.83349609 -26.8359375 70.83349609 C-27.1659375 69.84349609 -27.4959375 68.85349609 -27.8359375 67.83349609 C-27.9049285 65.77204502 -27.92061477 63.70848208 -27.8984375 61.64599609 C-27.88941406 60.55931641 -27.88039063 59.47263672 -27.87109375 58.35302734 C-27.85949219 57.52158203 -27.84789062 56.69013672 -27.8359375 55.83349609 C-25.3609375 55.33849609 -25.3609375 55.33849609 -22.8359375 54.83349609 C-22.8359375 51.20349609 -22.8359375 47.57349609 -22.8359375 43.83349609 C-24.1559375 43.50349609 -25.4759375 43.17349609 -26.8359375 42.83349609 C-26.8359375 41.51349609 -26.8359375 40.19349609 -26.8359375 38.83349609 C-27.8259375 38.83349609 -28.8159375 38.83349609 -29.8359375 38.83349609 C-29.92383394 35.0003099 -29.97662837 31.16738681 -30.0234375 27.33349609 C-30.04857422 26.25583984 -30.07371094 25.17818359 -30.09960938 24.06787109 C-30.17132387 16.22708609 -29.52875902 10.37263295 -24.6484375 3.95849609 C-17.44307989 -1.48555188 -8.57941961 -0.33732718 0 0 Z M-19.8359375 38.83349609 C-20.4959375 40.15349609 -21.1559375 41.47349609 -21.8359375 42.83349609 C-20.8459375 42.83349609 -19.8559375 42.83349609 -18.8359375 42.83349609 C-19.1659375 41.51349609 -19.4959375 40.19349609 -19.8359375 38.83349609 Z " fill="#A4ED61" transform="translate(34.8359375,9.16650390625)"/>
<path d="M0 0 C2.15864176 0.08328695 4.31714515 0.14520587 6.4765625 0.20458984 C13.26991 0.42217455 19.6564772 0.76598202 26.1640625 2.83349609 C26.1640625 3.82349609 26.1640625 4.81349609 26.1640625 5.83349609 C26.8034375 5.93662109 27.4428125 6.03974609 28.1015625 6.14599609 C28.7821875 6.37287109 29.4628125 6.59974609 30.1640625 6.83349609 C30.6590625 8.31849609 30.6590625 8.31849609 31.1640625 9.83349609 C33.16422716 11.04231706 33.16422716 11.04231706 35.1640625 11.83349609 C35.19298635 15.95848147 35.21083517 20.08344095 35.2265625 24.20849609 C35.23494141 25.38412109 35.24332031 26.55974609 35.25195312 27.77099609 C35.25517578 28.89248047 35.25839844 30.01396484 35.26171875 31.16943359 C35.26695557 32.20632324 35.27219238 33.24321289 35.27758789 34.31152344 C35.1640625 36.83349609 35.1640625 36.83349609 34.1640625 38.83349609 C32.8440625 38.83349609 31.5240625 38.83349609 30.1640625 38.83349609 C30.1640625 40.15349609 30.1640625 41.47349609 30.1640625 42.83349609 C31.8140625 43.16349609 33.4640625 43.49349609 35.1640625 43.83349609 C35.19111558 46.25023833 35.21092688 48.6666755 35.2265625 51.08349609 C35.23494141 51.76541016 35.24332031 52.44732422 35.25195312 53.14990234 C35.26834642 56.52692164 35.22035018 59.60641248 34.1640625 62.83349609 C35.1540625 62.83349609 36.1440625 62.83349609 37.1640625 62.83349609 C37.1640625 72.07349609 37.1640625 81.31349609 37.1640625 90.83349609 C36.1740625 90.83349609 35.1840625 90.83349609 34.1640625 90.83349609 C34.1640625 92.15349609 34.1640625 93.47349609 34.1640625 94.83349609 C32.8440625 94.83349609 31.5240625 94.83349609 30.1640625 94.83349609 C30.1640625 96.15349609 30.1640625 97.47349609 30.1640625 98.83349609 C27.5240625 98.83349609 24.8840625 98.83349609 22.1640625 98.83349609 C22.1640625 102.13349609 22.1640625 105.43349609 22.1640625 108.83349609 C19.5240625 108.83349609 16.8840625 108.83349609 14.1640625 108.83349609 C14.1640625 105.53349609 14.1640625 102.23349609 14.1640625 98.83349609 C12.8440625 98.50349609 11.5240625 98.17349609 10.1640625 97.83349609 C10.1640625 96.84349609 10.1640625 95.85349609 10.1640625 94.83349609 C8.5140625 94.83349609 6.8640625 94.83349609 5.1640625 94.83349609 C5.1640625 96.15349609 5.1640625 97.47349609 5.1640625 98.83349609 C3.8440625 98.83349609 2.5240625 98.83349609 1.1640625 98.83349609 C1.1640625 102.13349609 1.1640625 105.43349609 1.1640625 108.83349609 C-1.4759375 108.83349609 -4.1159375 108.83349609 -6.8359375 108.83349609 C-6.8359375 107.18349609 -6.8359375 105.53349609 -6.8359375 103.83349609 C-8.3209375 103.33849609 -8.3209375 103.33849609 -9.8359375 102.83349609 C-10.1659375 101.84349609 -10.4959375 100.85349609 -10.8359375 99.83349609 C-16.1159375 99.50349609 -21.3959375 99.17349609 -26.8359375 98.83349609 C-26.8359375 97.51349609 -26.8359375 96.19349609 -26.8359375 94.83349609 C-27.8259375 94.83349609 -28.8159375 94.83349609 -29.8359375 94.83349609 C-29.8359375 86.91349609 -29.8359375 78.99349609 -29.8359375 70.83349609 C-28.8459375 70.83349609 -27.8559375 70.83349609 -26.8359375 70.83349609 C-27.1659375 69.84349609 -27.4959375 68.85349609 -27.8359375 67.83349609 C-27.9049285 65.77204502 -27.92061477 63.70848208 -27.8984375 61.64599609 C-27.88941406 60.55931641 -27.88039063 59.47263672 -27.87109375 58.35302734 C-27.85949219 57.52158203 -27.84789062 56.69013672 -27.8359375 55.83349609 C-25.3609375 55.33849609 -25.3609375 55.33849609 -22.8359375 54.83349609 C-22.8359375 51.20349609 -22.8359375 47.57349609 -22.8359375 43.83349609 C-24.1559375 43.50349609 -25.4759375 43.17349609 -26.8359375 42.83349609 C-26.8359375 41.51349609 -26.8359375 40.19349609 -26.8359375 38.83349609 C-27.8259375 38.83349609 -28.8159375 38.83349609 -29.8359375 38.83349609 C-29.92383394 35.0003099 -29.97662837 31.16738681 -30.0234375 27.33349609 C-30.04857422 26.25583984 -30.07371094 25.17818359 -30.09960938 24.06787109 C-30.17132387 16.22708609 -29.52875902 10.37263295 -24.6484375 3.95849609 C-17.44307989 -1.48555188 -8.57941961 -0.33732718 0 0 Z M-2.8359375 2.83349609 C-2.8359375 3.49349609 -2.8359375 4.15349609 -2.8359375 4.83349609 C-3.97289062 4.94371094 -3.97289062 4.94371094 -5.1328125 5.05615234 C-8.5775271 6.04675669 -9.25095911 7.25293953 -11.0859375 10.27099609 C-11.58609375 11.07408203 -12.08625 11.87716797 -12.6015625 12.70458984 C-14.92910803 16.71886932 -14.9410839 19.26739232 -14.8984375 23.95849609 C-14.88941406 25.23982422 -14.88039063 26.52115234 -14.87109375 27.84130859 C-14.85949219 28.82873047 -14.84789062 29.81615234 -14.8359375 30.83349609 C-15.4959375 30.83349609 -16.1559375 30.83349609 -16.8359375 30.83349609 C-16.34773442 34.1695505 -15.74270305 37.08989082 -14.5859375 40.27099609 C-13.64963906 44.71841367 -14.8514699 46.98221708 -16.8359375 50.83349609 C-21.59320911 61.45483312 -27.7100791 75.66488313 -23.6484375 87.20849609 C-21.47521532 90.35592133 -20.55459925 91.02509137 -16.8359375 91.83349609 C-11.13916175 92.41265075 -6.67551193 92.20994337 -1.8359375 88.83349609 C1.22923913 84.72065168 3.15992129 80.72544497 4.8515625 75.89599609 C5.26792969 74.73197266 5.68429688 73.56794922 6.11328125 72.36865234 C7.90377246 66.34488082 8.28619175 60.65706745 8.2265625 54.39599609 C8.21753906 53.15978516 8.20851562 51.92357422 8.19921875 50.64990234 C8.18761719 49.72048828 8.17601562 48.79107422 8.1640625 47.83349609 C8.8240625 47.83349609 9.4840625 47.83349609 10.1640625 47.83349609 C9.6690625 48.82349609 9.6690625 48.82349609 9.1640625 49.83349609 C7.84882977 64.68045019 12.07042074 78.51505752 18.1640625 91.83349609 C19.31547118 93.19203634 19.31547118 93.19203634 22.4140625 93.20849609 C26.29824175 93.17168894 26.29824175 93.17168894 29.0390625 90.45849609 C33.10315364 85.43814822 32.95021374 80.58440132 32.49414062 74.24267578 C31.81568456 69.29074943 30.36056169 64.54466898 28.9140625 59.77099609 C28.61435547 58.77173096 28.31464844 57.77246582 28.00585938 56.74291992 C26.35195536 51.56130184 24.64752455 48.05999019 21.1640625 43.83349609 C21.26986723 40.48508769 22.84558907 38.80823859 25.1015625 36.45849609 C29.81256806 31.13889173 31.22192873 24.85845656 31.1640625 17.83349609 C30.38517423 12.68278334 28.96339184 9.0042845 24.7265625 5.83349609 C20.74573271 3.26866616 17.08722316 2.70578353 12.3984375 2.73583984 C11.50898437 2.7390625 10.61953125 2.74228516 9.703125 2.74560547 C8.78273437 2.75398437 7.86234375 2.76236328 6.9140625 2.77099609 C5.51027344 2.77776367 5.51027344 2.77776367 4.078125 2.78466797 C1.77337209 2.79642691 -0.53124977 2.81286184 -2.8359375 2.83349609 Z M-19.8359375 38.83349609 C-20.4959375 40.15349609 -21.1559375 41.47349609 -21.8359375 42.83349609 C-20.8459375 42.83349609 -19.8559375 42.83349609 -18.8359375 42.83349609 C-19.1659375 41.51349609 -19.4959375 40.19349609 -19.8359375 38.83349609 Z " fill="#2A2339" transform="translate(34.8359375,9.16650390625)"/>
<path d="M0 0 C2.89997477 0.64668427 4.4231 1.37543261 7 3 C7.9375 5.6875 7.9375 5.6875 8 8 C6.35 8.66 4.7 9.32 3 10 C2.67 12.31 2.34 14.62 2 17 C2.66 17.04125 3.32 17.0825 4 17.125 C9.6026323 18.75910109 14.33178374 22.45919114 17.5 27.375 C19.8892633 33.14905297 19.8892633 36.85094703 17.5 42.625 C14.54385416 47.21176009 10.00304994 51.16893525 4.69921875 52.63671875 C-3.05860485 53.68082526 -11.35900353 54.74363748 -18.1875 50.3125 C-22.21651262 47.09535998 -25.34653156 43.96040532 -27 39 C-27.49812944 33.02244676 -26.98440417 28.75020887 -23 24 C-19.15820037 20.43891642 -15.41164911 17.33822807 -10 17 C-10.10407917 13.59919423 -10.10407917 13.59919423 -11 10 C-13.4251788 8.00916823 -13.4251788 8.00916823 -16 7 C-13.18635044 -1.2245141 -7.7241556 -0.68850412 0 0 Z " fill="#8FDE5D" transform="translate(100,13)"/>
<path d="M0 0 C2.15864176 0.08328695 4.31714515 0.14520587 6.4765625 0.20458984 C13.26991 0.42217455 19.6564772 0.76598202 26.1640625 2.83349609 C26.1640625 3.82349609 26.1640625 4.81349609 26.1640625 5.83349609 C26.8034375 5.93662109 27.4428125 6.03974609 28.1015625 6.14599609 C28.7821875 6.37287109 29.4628125 6.59974609 30.1640625 6.83349609 C30.6590625 8.31849609 30.6590625 8.31849609 31.1640625 9.83349609 C33.16422716 11.04231706 33.16422716 11.04231706 35.1640625 11.83349609 C35.19298635 15.95848147 35.21083517 20.08344095 35.2265625 24.20849609 C35.23494141 25.38412109 35.24332031 26.55974609 35.25195312 27.77099609 C35.25517578 28.89248047 35.25839844 30.01396484 35.26171875 31.16943359 C35.26695557 32.20632324 35.27219238 33.24321289 35.27758789 34.31152344 C35.1640625 36.83349609 35.1640625 36.83349609 34.1640625 38.83349609 C33.1740625 38.83349609 32.1840625 38.83349609 31.1640625 38.83349609 C31.14947998 38.2444751 31.13489746 37.6554541 31.11987305 37.04858398 C31.04452486 34.33045807 30.94815866 31.61344667 30.8515625 28.89599609 C30.81772461 27.50670898 30.81772461 27.50670898 30.78320312 26.08935547 C30.55008198 20.04939853 29.91924721 14.30214248 27.1640625 8.83349609 C22.46459766 4.83395155 18.40758907 3.78673126 12.3984375 3.51708984 C11.50898437 3.47519531 10.61953125 3.43330078 9.703125 3.39013672 C8.78273437 3.35082031 7.86234375 3.31150391 6.9140625 3.27099609 C5.97820313 3.2278125 5.04234375 3.18462891 4.078125 3.14013672 C1.77357609 3.0343156 -0.53107589 2.93223052 -2.8359375 2.83349609 C-2.8359375 3.49349609 -2.8359375 4.15349609 -2.8359375 4.83349609 C-3.7228125 5.14287109 -4.6096875 5.45224609 -5.5234375 5.77099609 C-10.15042251 8.65194902 -12.21451491 11.63230934 -13.8359375 16.83349609 C-14.23256056 21.8791439 -14.13571171 26.77730435 -13.8359375 31.83349609 C-14.4959375 31.83349609 -15.1559375 31.83349609 -15.8359375 31.83349609 C-15.58457031 32.61853516 -15.33320313 33.40357422 -15.07421875 34.21240234 C-12.55413711 42.87850588 -12.55413711 42.87850588 -13.9609375 47.64599609 C-14.5796875 48.69787109 -15.1984375 49.74974609 -15.8359375 50.83349609 C-16.32728343 52.07875907 -16.80653661 53.32886298 -17.2734375 54.58349609 C-18.8359375 57.83349609 -18.8359375 57.83349609 -20.9609375 59.20849609 C-23.34579853 61.27537565 -23.15334523 62.19483795 -23.3984375 65.27099609 C-23.45 66.06248047 -23.5015625 66.85396484 -23.5546875 67.66943359 C-23.90884928 70.39451172 -24.90662665 71.90418525 -26.8359375 73.83349609 C-28.16188109 67.86674993 -27.9243962 61.90765994 -27.8359375 55.83349609 C-25.3609375 55.33849609 -25.3609375 55.33849609 -22.8359375 54.83349609 C-22.8359375 51.20349609 -22.8359375 47.57349609 -22.8359375 43.83349609 C-24.1559375 43.50349609 -25.4759375 43.17349609 -26.8359375 42.83349609 C-26.8359375 41.51349609 -26.8359375 40.19349609 -26.8359375 38.83349609 C-27.8259375 38.83349609 -28.8159375 38.83349609 -29.8359375 38.83349609 C-29.92383394 35.0003099 -29.97662837 31.16738681 -30.0234375 27.33349609 C-30.04857422 26.25583984 -30.07371094 25.17818359 -30.09960938 24.06787109 C-30.17132387 16.22708609 -29.52875902 10.37263295 -24.6484375 3.95849609 C-17.44307989 -1.48555188 -8.57941961 -0.33732718 0 0 Z M-19.8359375 38.83349609 C-20.4959375 40.15349609 -21.1559375 41.47349609 -21.8359375 42.83349609 C-20.8459375 42.83349609 -19.8559375 42.83349609 -18.8359375 42.83349609 C-19.1659375 41.51349609 -19.4959375 40.19349609 -19.8359375 38.83349609 Z " fill="#2A2239" transform="translate(34.8359375,9.16650390625)"/>
<path d="M0 0 C1.11246094 -0.03738281 2.22492187 -0.07476562 3.37109375 -0.11328125 C7.25509701 0.40490278 8.80415587 1.58349996 11.5625 4.3125 C14.56339621 9.58993817 15.47359923 14.36476234 14.5625 20.3125 C12.70848729 26.14687897 9.67279704 29.87287699 4.5625 33.3125 C-0.2612344 35.74892796 -5.04146548 37.3917069 -10.4375 36.3125 C-16.37061533 31.77974729 -19.40633261 25.60746076 -20.4375 18.3125 C-20.60806797 9.72318447 -20.60806797 9.72318447 -18.06640625 6.66015625 C-12.01770502 1.65583509 -7.72384372 0.16965668 0 0 Z " fill="#2B243A" transform="translate(46.4375,15.6875)"/>
<path d="M0 0 C0 0.66 0 1.32 0 2 C-0.886875 2.309375 -1.77375 2.61875 -2.6875 2.9375 C-7.31448501 5.81845293 -9.37857741 8.79881324 -11 14 C-11.39662306 19.04564781 -11.29977421 23.94380826 -11 29 C-14 28 -14 28 -16 26 C-17.32 28.97 -18.64 31.94 -20 35 C-20.66 35 -21.32 35 -22 35 C-23.88041096 29.40389699 -24.36570053 24.38656463 -24.375 18.5 C-24.39949219 17.68402344 -24.42398437 16.86804688 -24.44921875 16.02734375 C-24.4773183 10.19200391 -23.48027817 6.72976508 -20 2 C-14.07615571 -2.12909542 -6.75464503 -1.04791689 0 0 Z " fill="#49AE6C" transform="translate(32,12)"/>
<path d="M0 0 C2.89997477 0.64668427 4.4231 1.37543261 7 3 C7.9375 5.6875 7.9375 5.6875 8 8 C6.35 8.66 4.7 9.32 3 10 C2.67 12.31 2.34 14.62 2 17 C2.66 17.04125 3.32 17.0825 4 17.125 C9.6026323 18.75910109 14.33178374 22.45919114 17.5 27.375 C19.8892633 33.14905297 19.8892633 36.85094703 17.5 42.625 C14.54385416 47.21176009 10.00304994 51.16893525 4.69921875 52.63671875 C-3.05860485 53.68082526 -11.35900353 54.74363748 -18.1875 50.3125 C-22.21651262 47.09535998 -25.34653156 43.96040532 -27 39 C-27.49812944 33.02244676 -26.98440417 28.75020887 -23 24 C-19.15820037 20.43891642 -15.41164911 17.33822807 -10 17 C-10.10407917 13.59919423 -10.10407917 13.59919423 -11 10 C-13.4251788 8.00916823 -13.4251788 8.00916823 -16 7 C-13.18635044 -1.2245141 -7.7241556 -0.68850412 0 0 Z M-13 3 C-13.73323796 5.01508358 -13.73323796 5.01508358 -14 7 C-11.525 7.99 -11.525 7.99 -9 9 C-8.62995595 15.53744493 -8.62995595 15.53744493 -10.265625 17.58203125 C-12.07791227 19.06369854 -13.90652879 20.21333125 -15.9375 21.375 C-20.05473143 23.88015368 -22.82312281 26.64624563 -25 31 C-25.50921186 37.11054235 -25.08852244 40.13797331 -21 45 C-16.24070142 49.75929858 -10.67690441 51.78712659 -4.03125 52.171875 C3.25112778 51.9144172 7.89970002 50.23516368 13 45 C16.41904816 41.06809461 17.67009126 38.07337319 17.38671875 32.953125 C16.30573901 27.49363135 12.36919092 24.05843365 8 21 C4.85237006 19.09234549 3.90633096 19 0 19 C0 15.37 0 11.74 0 8 C1.98 7.67 3.96 7.34 6 7 C5.3295913 3.91610733 5.3295913 3.91610733 3.0625 2.8125 C-2.21981071 1.41107063 -7.79822727 1.26607576 -13 3 Z " fill="#E36956" transform="translate(100,13)"/>
<path d="M0 0 C-1.14373889 2.80735909 -2.23376598 4.21623353 -4.5 6.3125 C-9.10727036 11.26531563 -9.53368101 18.43969766 -10.625 24.9375 C-10.7590625 25.71673828 -10.893125 26.49597656 -11.03125 27.29882812 C-11.3575968 29.19863271 -11.67928623 31.09923637 -12 33 C-12.66 33 -13.32 33 -14 33 C-15.19898754 28.22354558 -15.2556719 23.51979403 -15.3125 18.625 C-15.34150391 17.8 -15.37050781 16.975 -15.40039062 16.125 C-15.46111964 10.23895724 -14.56317694 6.74681403 -11 2 C-8.7109375 0.625 -8.7109375 0.625 -6.375 0 C-5.59898438 -0.226875 -4.82296875 -0.45375 -4.0234375 -0.6875 C-2 -1 -2 -1 0 0 Z " fill="#3B7070" transform="translate(23,12)"/>
<path d="M0 0 C0.99 0.33 1.98 0.66 3 1 C3 1.66 3 2.32 3 3 C2.34 3 1.68 3 1 3 C1 3.66 1 4.32 1 5 C1.66 5 2.32 5 3 5 C2.67 6.32 2.34 7.64 2 9 C1.34 9 0.68 9 0 9 C0.04640625 9.68707031 0.0928125 10.37414063 0.140625 11.08203125 C0.17671875 11.98308594 0.2128125 12.88414063 0.25 13.8125 C0.29640625 14.70582031 0.3428125 15.59914063 0.390625 16.51953125 C0 19 0 19 -1.98046875 20.546875 C-2.64691406 21.02640625 -3.31335938 21.5059375 -4 22 C-4.58398079 24.13358889 -4.58398079 24.13358889 -4.5625 26.4375 C-4.80529869 30.16445986 -5.26328854 32.26328854 -8 35 C-9.32594359 29.03325384 -9.0884587 23.07416385 -9 17 C-7.35 16.67 -5.7 16.34 -4 16 C-4 12.37 -4 8.74 -4 5 C-2.68 4.67 -1.36 4.34 0 4 C0 2.68 0 1.36 0 0 Z " fill="#281F38" transform="translate(16,48)"/>
<path d="M0 0 C0.78375 0.495 1.5675 0.99 2.375 1.5 C2.375 2.16 2.375 2.82 2.375 3.5 C0.395 3.83 -1.585 4.16 -3.625 4.5 C-3.625 6.81 -3.625 9.12 -3.625 11.5 C-3.955 10.84 -4.285 10.18 -4.625 9.5 C-6.935 10.16 -9.245 10.82 -11.625 11.5 C-11.686875 10.55125 -11.74875 9.6025 -11.8125 8.625 C-12.080625 7.59375 -12.34875 6.5625 -12.625 5.5 C-15.08755685 4.04708727 -15.08755685 4.04708727 -17.625 3.5 C-17.3125 1.5625 -17.3125 1.5625 -16.625 -0.5 C-11.01341426 -2.37052858 -5.45214398 -2.25605958 0 0 Z " fill="#473B78" transform="translate(103.625,16.5)"/>
<path d="M0 0 C0.33 0 0.66 0 1 0 C1.19335938 0.73605469 1.38671875 1.47210938 1.5859375 2.23046875 C1.84632812 3.20628906 2.10671875 4.18210937 2.375 5.1875 C2.63023438 6.15042969 2.88546875 7.11335938 3.1484375 8.10546875 C3.94468388 10.99766583 3.94468388 10.99766583 5.1015625 13.67578125 C6 16 6 16 6 19 C3.19094523 20.98974713 1.12713336 21.1011012 -2.1875 20.75 C-3.445625 20.5025 -4.70375 20.255 -6 20 C-6.33 19.34 -6.66 18.68 -7 18 C-6.11063721 15.6499619 -5.1696052 13.40456069 -4.125 11.125 C-1.62664757 5.71505943 -1.62664757 5.71505943 0 0 Z " fill="#773550" transform="translate(43,78)"/>
<path d="M0 0 C1.9375 0.75 1.9375 0.75 4 2 C4.97114326 4.39445904 5.13156992 5.59458107 4.328125 8.0703125 C3.97234375 8.74835937 3.6165625 9.42640625 3.25 10.125 C2.90453125 10.80820312 2.5590625 11.49140625 2.203125 12.1953125 C1 14 1 14 -2 16 C-4.6875 15.625 -4.6875 15.625 -7 15 C-6.57352731 9.31369743 -4.06314998 4.06314998 0 0 Z " fill="#323E4F" transform="translate(90,36)"/>
<path d="M0 0 C2.66404576 1.01050012 3.97707828 1.97233585 5.8125 4.1875 C7.3464813 7.82061361 6.81890795 10.20324498 6 14 C3.66705225 14.04241723 1.33297433 14.04092937 -1 14 C-2 13 -2 13 -2.09765625 10.49609375 C-2.08605469 9.48675781 -2.07445313 8.47742188 -2.0625 7.4375 C-2.05347656 6.42558594 -2.04445313 5.41367187 -2.03515625 4.37109375 C-2.02355469 3.58863281 -2.01195313 2.80617187 -2 2 C-1.34 2 -0.68 2 0 2 C0 1.34 0 0.68 0 0 Z " fill="#323E4F" transform="translate(105,39)"/>
<path d="M0 0 C1.65 0.33 3.3 0.66 5 1 C4.85975781 3.47960136 4.7130815 5.95852402 4.5625 8.4375 C4.52318359 9.14455078 4.48386719 9.85160156 4.44335938 10.58007812 C4.11328125 15.88671875 4.11328125 15.88671875 3 17 C1.33382885 17.04063832 -0.33388095 17.042721 -2 17 C-2.3690205 5.47835991 -2.3690205 5.47835991 0 0 Z " fill="#773550" transform="translate(41,24)"/>
<path d="M0 0 C1.32 0.33 2.64 0.66 4 1 C4.02892385 5.12498538 4.04677267 9.24994485 4.0625 13.375 C4.07087891 14.550625 4.07925781 15.72625 4.08789062 16.9375 C4.09111328 18.05898438 4.09433594 19.18046875 4.09765625 20.3359375 C4.10289307 21.37282715 4.10812988 22.4097168 4.11352539 23.47802734 C4 26 4 26 3 28 C2.01 28 1.02 28 0 28 C-0.17302632 16.6379386 -0.17302632 16.6379386 0.5625 11.1875 C1.0824525 7.23008376 0.74939244 3.91349387 0 0 Z " fill="#201236" transform="translate(66,20)"/>
<path d="M0 0 C1.67542976 0.28604898 3.34385343 0.61781233 5 1 C5.8723412 3.99480917 6.10829766 6.63575911 6.0625 9.75 C6.05347656 10.54921875 6.04445313 11.3484375 6.03515625 12.171875 C6.01775391 13.07679687 6.01775391 13.07679687 6 14 C4.125 15.0625 4.125 15.0625 2 16 C1.34 15.67 0.68 15.34 0 15 C-0.44921875 11.875 -0.44921875 11.875 -0.6875 8 C-0.77386719 6.72125 -0.86023437 5.4425 -0.94921875 4.125 C-0.96597656 3.09375 -0.98273437 2.0625 -1 1 C-0.67 0.67 -0.34 0.34 0 0 Z " fill="#773550" transform="translate(49,24)"/>
<path d="M0 0 C6.875 0.875 6.875 0.875 8 2 C8.07313567 4.53049402 8.09247527 7.03304837 8.0625 9.5625 C8.05798828 10.27341797 8.05347656 10.98433594 8.04882812 11.71679688 C8.03700864 13.47790013 8.01907263 15.23896036 8 17 C7.67 17 7.34 17 7 17 C7 13.37 7 9.74 7 6 C6.01 6.33 5.02 6.66 4 7 C3.67 9.97 3.34 12.94 3 16 C0.54176828 12.31265242 -0.01242616 9.30300029 -1 5 C-0.01 5 0.98 5 2 5 C2 3.68 2 2.36 2 1 C1.34 0.67 0.68 0.34 0 0 Z " fill="#2B243A" transform="translate(62,51)"/>
<path d="M0 0 C4.29 0 8.58 0 13 0 C13 0.99 13 1.98 13 3 C10.23547967 4.38226016 7.9538637 4.09525387 4.875 4.0625 C3.77929688 4.05347656 2.68359375 4.04445313 1.5546875 4.03515625 C0.29011719 4.01775391 0.29011719 4.01775391 -1 4 C-0.67 2.68 -0.34 1.36 0 0 Z " fill="#1A1134" transform="translate(13,104)"/>
<path d="M0 0 C0.66 0 1.32 0 2 0 C2 5.94 2 11.88 2 18 C1.34 18 0.68 18 0 18 C-1.52491129 14.95017742 -1.14361434 11.77877461 -1.125 8.4375 C-1.12886719 7.73947266 -1.13273437 7.04144531 -1.13671875 6.32226562 C-1.12663994 1.12663994 -1.12663994 1.12663994 0 0 Z " fill="#1D0D35" transform="translate(67,58)"/>
<path d="M0 0 C0 1.32 0 2.64 0 4 C-2.65228812 5.07525194 -5.28368454 6.09456151 -8 7 C-7.625 4.0625 -7.625 4.0625 -7 1 C-4.53721199 -0.231394 -2.7204945 -0.07159196 0 0 Z " fill="#323E4F" transform="translate(108,55)"/>
<path d="M0 0 C0.66 0 1.32 0 2 0 C2.66 1.98 3.32 3.96 4 6 C3.01 6.495 3.01 6.495 2 7 C1.34786708 9.02463255 1.34786708 9.02463255 1 11 C0.01 11 -0.98 11 -2 11 C-2.24042276 6.91281305 -1.42258812 3.82320557 0 0 Z " fill="#35303D" transform="translate(7,93)"/>
<path d="M0 0 C-0.33 2.64 -0.66 5.28 -1 8 C-1.99 8 -2.98 8 -4 8 C-5.6875 5.5 -5.6875 5.5 -7 3 C-4.49955934 -0.00052879 -4.2621484 0 0 0 Z " fill="#211536" transform="translate(65,48)"/>
<path d="M0 0 C0.66 0 1.32 0 2 0 C2.2506019 1.41303238 2.47461921 2.83079474 2.6875 4.25 C2.81511719 5.03890625 2.94273438 5.8278125 3.07421875 6.640625 C3 9 3 9 0 13 C0 8.71 0 4.42 0 0 Z " fill="#1D0D35" transform="translate(8,70)"/>
<path d="M0 0 C0.33 0 0.66 0 1 0 C1 3.96 1 7.92 1 12 C-0.32 11.67 -1.64 11.34 -3 11 C-2.69217504 9.35328588 -2.37860766 7.70764424 -2.0625 6.0625 C-1.88847656 5.14597656 -1.71445312 4.22945312 -1.53515625 3.28515625 C-1 1 -1 1 0 0 Z " fill="#33313C" transform="translate(65,36)"/>
<path d="M0 0 C1.32 0 2.64 0 4 0 C3.67 1.65 3.34 3.3 3 5 C1.35 5 -0.3 5 -2 5 C-1.125 1.125 -1.125 1.125 0 0 Z " fill="#323E4F" transform="translate(93,54)"/>
<path d="M0 0 C1.32 0 2.64 0 4 0 C4 3.3 4 6.6 4 10 C1.81024227 6.71536341 1.00193437 3.79303725 0 0 Z " fill="#4E5F45" transform="translate(61,57)"/>
<path d="M0 0 C0.99 0 1.98 0 3 0 C2.67 2.97 2.34 5.94 2 9 C-0.29013653 5.5647952 -0.17842973 4.014669 0 0 Z " fill="#1C0C35" transform="translate(12,58)"/>
<path d="M0 0 C1.98 0.495 1.98 0.495 4 1 C3.67 2.32 3.34 3.64 3 5 C1.68 4.67 0.36 4.34 -1 4 C-0.67 2.68 -0.34 1.36 0 0 Z " fill="#323E4F" transform="translate(99,33)"/>
<path d="M0 0 C1.65 0 3.3 0 5 0 C4.67 1.32 4.34 2.64 4 4 C2.68 3.67 1.36 3.34 0 3 C0 2.01 0 1.02 0 0 Z " fill="#1D1435" transform="translate(55,104)"/>
</svg>
